<?xml version="1.0" standalone="no"?>
<!DOCTYPE svg PUBLIC "-//W3C//DTD SVG 20010904//EN"
 "http://www.w3.org/TR/2001/REC-SVG-20010904/DTD/svg10.dtd">
<svg version="1.0" xmlns="http://www.w3.org/2000/svg"
 width="500.000000pt" height="333.000000pt" viewBox="0 0 500.000000 333.000000"
 preserveAspectRatio="xMidYMid meet">

<g transform="translate(0.000000,333.000000) scale(0.100000,-0.100000)"
fill="#ffffff" stroke="none">
<path d="M1907 2500 c-92 -23 -166 -82 -208 -166 l-24 -49 -3 -449 c-3 -500
-2 -514 63 -599 25 -32 55 -55 102 -79 61 -30 77 -33 175 -37 59 -2 108 -4
108 -6 0 -1 -11 -27 -24 -56 -52 -119 -87 -203 -80 -196 9 8 293 501 291 503
-1 1 -27 -2 -57 -8 -65 -12 -229 -5 -260 12 -47 25 -50 54 -50 445 0 399 3
425 55 445 15 6 82 10 151 10 142 0 175 -10 193 -61 7 -21 11 -157 11 -403 l0
-371 135 235 136 235 -3 185 c-3 175 -4 188 -29 240 -33 70 -79 116 -149 149
-53 25 -61 26 -275 28 -121 1 -237 -2 -258 -7z"/>
<path d="M2864 2229 c-77 -133 -140 -246 -142 -250 -2 -5 55 -9 127 -9 79 0
140 -5 156 -12 54 -24 55 -35 55 -442 0 -214 -4 -385 -10 -400 -19 -51 -51
-61 -210 -65 -118 -2 -148 0 -158 11 -9 11 -12 123 -14 418 l-3 404 -133 -231
-132 -230 2 -299 3 -299 350 0 350 0 50 25 c71 35 128 96 154 165 21 57 22 67
19 514 l-3 456 -27 51 c-34 64 -104 127 -166 149 -26 9 -89 19 -139 22 -51 3
-93 7 -93 8 0 1 21 49 46 106 54 124 65 149 60 149 -2 0 -66 -109 -142 -241z"/>
<path d="M1720 632 c-8 -3 -18 -10 -22 -16 -13 -19 -9 -73 6 -86 22 -17 59 -8
72 18 23 46 -12 99 -56 84z m38 -56 c-2 -23 -8 -31 -23 -31 -23 0 -33 38 -15
60 19 23 41 6 38 -29z"/>
<path d="M2420 630 c0 -5 5 -10 10 -10 6 0 10 5 10 10 0 6 -4 10 -10 10 -5 0
-10 -4 -10 -10z"/>
<path d="M2810 630 c0 -5 5 -10 10 -10 6 0 10 5 10 10 0 6 -4 10 -10 10 -5 0
-10 -4 -10 -10z"/>
<path d="M1903 610 c-8 -12 -9 -21 -3 -25 6 -3 10 -19 10 -36 0 -23 4 -29 22
-29 17 0 19 3 10 12 -15 15 -16 58 -2 58 6 0 5 8 -2 20 -16 25 -20 25 -35 0z"/>
<path d="M2358 613 c-8 -35 6 -88 25 -91 9 -2 17 1 17 7 0 6 -4 11 -10 11 -13
0 -13 37 0 45 6 4 5 13 -3 25 -15 25 -23 25 -29 3z"/>
<path d="M2690 574 l0 -55 37 3 c48 4 74 42 55 82 -10 22 -18 26 -52 26 l-40
0 0 -56z m68 4 c-2 -22 -9 -34 -20 -36 -15 -3 -18 4 -18 32 0 30 4 36 21 36
17 0 20 -5 17 -32z"/>
<path d="M3113 610 c-8 -12 -9 -21 -3 -25 6 -3 10 -19 10 -36 0 -23 4 -29 22
-29 17 0 19 3 10 12 -16 16 -15 55 1 61 10 4 10 6 0 6 -7 1 -13 8 -13 16 0 21
-13 19 -27 -5z"/>
<path d="M2590 607 c-21 -11 -25 -21 -28 -65 l-2 -52 40 0 c33 0 40 3 40 20 0
11 -6 21 -12 22 -7 0 -17 2 -23 3 -5 2 -14 4 -20 5 -5 1 1 5 15 9 17 5 25 14
24 29 0 12 3 22 8 22 4 0 8 5 8 10 0 14 -20 12 -50 -3z m18 -28 c-2 -6 -8 -10
-13 -10 -5 0 -11 4 -13 10 -2 6 4 11 13 11 9 0 15 -5 13 -11z m12 -69 c0 -5
-12 -10 -26 -10 -14 0 -23 4 -19 10 3 6 15 10 26 10 10 0 19 -4 19 -10z"/>
<path d="M1975 597 c-21 -16 -14 -34 19 -47 19 -8 18 -9 -8 -9 -22 -1 -27 -4
-19 -12 6 -6 21 -9 34 -7 31 4 38 37 10 45 -12 3 -21 10 -21 15 0 6 7 8 15 5
8 -4 17 -2 20 2 3 5 -2 12 -11 15 -20 8 -17 8 -39 -7z"/>
<path d="M2073 602 c-19 -3 -23 -10 -23 -43 0 -47 17 -52 22 -6 2 17 8 32 13
32 6 0 11 -15 13 -32 2 -18 7 -33 12 -33 5 0 10 15 12 33 2 17 8 32 13 32 6 0
11 -15 13 -32 2 -18 7 -33 13 -33 11 0 13 80 2 81 -32 3 -72 3 -90 1z"/>
<path d="M2213 603 c-7 -2 -13 -9 -13 -14 0 -4 6 -6 14 -3 8 3 17 1 20 -4 3
-6 -6 -13 -20 -16 -40 -10 -28 -41 18 -42 l36 -2 -5 37 c-7 44 -21 56 -50 44z
m27 -57 c0 -11 -19 -15 -25 -6 -3 5 1 10 9 10 9 0 16 -2 16 -4z"/>
<path d="M2490 601 c-21 -5 -25 -12 -25 -44 0 -23 5 -37 13 -37 7 0 12 14 12
36 0 45 24 42 28 -4 4 -43 22 -41 22 2 0 40 -16 54 -50 47z"/>
<path d="M2863 603 c-23 -9 -14 -41 15 -51 l27 -10 -27 -1 c-16 -1 -28 -6 -28
-12 0 -6 14 -9 33 -7 24 2 32 8 32 23 0 13 -8 21 -22 23 -13 2 -23 8 -23 13 0
6 9 7 20 4 24 -7 27 10 4 19 -9 3 -16 6 -17 5 -1 0 -8 -3 -14 -6z"/>
<path d="M2953 603 c-21 -8 -14 -25 7 -18 11 3 20 2 20 -3 0 -6 -12 -13 -26
-16 -40 -10 -28 -41 18 -42 l36 -2 -5 37 c-7 44 -21 56 -50 44z m27 -63 c0 -5
-4 -10 -9 -10 -6 0 -13 5 -16 10 -3 6 1 10 9 10 9 0 16 -4 16 -10z"/>
<path d="M3043 603 c-21 -8 -15 -39 10 -51 l22 -11 -22 0 c-13 -1 -23 -5 -23
-11 0 -15 57 -12 62 3 8 20 -2 37 -23 37 -10 0 -19 5 -19 11 0 6 9 8 20 4 24
-7 27 10 4 19 -9 3 -16 6 -17 5 -1 0 -8 -3 -14 -6z"/>
<path d="M3188 599 c-18 -10 -23 -35 -12 -63 7 -18 64 -23 64 -6 0 6 -11 10
-25 10 -14 0 -25 5 -25 10 0 6 14 10 30 10 33 0 38 11 14 34 -18 19 -23 19
-46 5z m32 -19 c0 -5 -7 -10 -16 -10 -8 0 -12 5 -9 10 3 6 10 10 16 10 5 0 9
-4 9 -10z"/>
<path d="M1800 573 c0 -40 11 -52 48 -51 30 1 32 3 32 40 0 43 -17 52 -22 11
-4 -39 -28 -42 -28 -4 0 21 -5 31 -15 31 -10 0 -15 -10 -15 -27z"/>
<path d="M2290 560 c0 -22 5 -40 10 -40 6 0 10 12 10 26 0 15 8 33 18 40 15
12 14 13 -10 14 -26 0 -28 -3 -28 -40z"/>
<path d="M2420 560 c0 -22 5 -40 10 -40 6 0 10 18 10 40 0 22 -4 40 -10 40 -5
0 -10 -18 -10 -40z"/>
<path d="M2810 560 c0 -22 5 -40 10 -40 6 0 10 18 10 40 0 22 -4 40 -10 40 -5
0 -10 -18 -10 -40z"/>
<path d="M3270 560 c0 -22 5 -40 10 -40 6 0 10 12 10 26 0 15 8 33 18 40 15
12 14 13 -10 14 -26 0 -28 -3 -28 -40z"/>
</g>
</svg>
